 <!DOCTYPE svg PUBLIC "-//W3C//DTD SVG 1.1//EN" "http://www.w3.org/Graphics/SVG/1.1/DTD/svg11.dtd">
<svg id="a05aeab1-b4ee-40c7-b6ba-c96a7068889f" data-name="Layer 1" xmlns="http://www.w3.org/2000/svg" width="865.76" height="682.89" viewBox="0 0 865.76 682.89">
<defs>
<style xmlns="http://www.w3.org/1999/xhtml">*, ::after, ::before { box-sizing: border-box; }
img, svg { vertical-align: middle; }
</style>
<style xmlns="http://www.w3.org/1999/xhtml">*, body, html { -webkit-font-smoothing: antialiased; }
img, svg { max-width: 100%; }
</style>
</defs>
<path d="M522.36,202.14h17.35L536.07,170s-8.78,6-10.71,6.43S522.36,202.14,522.36,202.14Z" fill="#2f2e41" data-secondary="true"/>
<path d="M522.36,202.14h17.35L536.07,170s-8.78,6-10.71,6.43S522.36,202.14,522.36,202.14Z" opacity="0.2"/>
<polygon points="672.08 408.48 685.94 401.69 704.33 408.48 685.94 423.47 672.08 408.48" fill="#f9b499"/>
<path d="M454.92,71.46V70.1a13.88,13.88,0,0,1-2.48-14.38s.62-4.22-.37-6.57c0,0-4.08-11.16,1.12-11,0,0,3.47-1.48,5,10.91,0,0,2.6-1,0-15.49,0,0-1.24-4.47,1.73-4.09,0,0-2.85-6.57,1-7.19,0,0,.25-2.61,2.86-1.24,0,0,7.68,9.67,7.43,16.24,0,0,1.12,21.69-2.48,34.21Z" fill="#f9b499"/>
<polygon points="425.46 619.29 425.46 647.1 443.78 638.89 443.78 613.73 425.46 619.29" fill="#f9b499"/>
<path d="M422.63,624.86s-43-122.35,10.78-232.94l39.43-85.72,71.59,2.12s40.46,32.34,45.7,143.14c0,0,44.49-29.23,85.93-48L691.11,422s-81.79,105.35-125,108c0,0-19,4.58-26.17-28.14L509.21,400.42s-43.75,88.77-45.74,105.89c-.08.74-.16,1.47-.26,2.21L447.05,624.86Z" fill="#2f2e41" data-secondary="true"/>
<path d="M422.63,624.86s-43-122.35,10.78-232.94l39.43-85.72,71.59,2.12s40.46,32.34,45.7,143.14c0,0,44.49-29.23,85.93-48L691.11,422s-81.79,105.35-125,108c0,0-19,4.58-26.17-28.14L509.21,400.42s-43.75,88.77-45.74,105.89c-.08.74-.16,1.47-.26,2.21L447.05,624.86Z" opacity="0.2"/>
<path d="M406.36,664.62s-5.58,6.68-.74,8.35a5.05,5.05,0,0,0,4.23-.52L452,647.1s4.07-2,0-6.62l-8.22-8.43L426.7,642.52Z" fill="#0071f2" data-primary="true"/>
<polygon points="160.19 389.31 181.13 405.66 196.18 389.31 173.06 378.18 160.19 389.31" fill="#f9b499"/>
<polygon points="487.35 616.35 497.16 635.98 518.76 631.4 505.67 602.61 487.35 616.35" fill="#f9b499"/>
<path d="M499.56,649.94s-6.32-10.47-2.18-17.89l19.76-4.22s19.44.07,29.41,1.58a14.18,14.18,0,0,1,3.72,1.08c2.18,1,4.63,2.83,1.08,5.23a10.85,10.85,0,0,1-3.32,1.46Z" fill="#0071f2" data-primary="true"/>
<path d="M174.6,370.17,131.65,387.6s-5.52,3.81,0,6.1c0,0,22.48.64,35.63-1.78,0,0,14.8-6.31,18.74-7.51,0,0-1.62-18.91-7.88-15.9C177,369.08,175.81,369.68,174.6,370.17Z" fill="#0071f2" data-primary="true"/>
<path d="M410.08,59.8a131.63,131.63,0,0,1-2.2-21.61A42,42,0,0,1,413.27,17c2.48-4.34,5.27-7.52,6.54-2.92,0,0,3.53-1.37,0,6.07a2.57,2.57,0,0,1,2.54,2.56s-3.34,8.58-2.18,17c0,0,1.17,2.48,2.18-.14,0,0,.59-12.36,5.38-9.16,0,0,2-.51.52,5.53a35.7,35.7,0,0,0-.95,11h0s.44,12.32-3.34,14.23Z" fill="#f9b499"/>
<path d="M158.54,292.29a36.27,36.27,0,0,0-13.39,10.43c-2.31,2.95-3.83,6-1.39,7,0,0,3.81,4.86,7.63-2.78,0,0-.67,5.44,10.82-3.23,0,0,4.94-4,8.87-2.12,0,0-11.92,6.66-8.43,9.65,0,0,.3,3.69,11.06-4.69a15.59,15.59,0,0,1,6.41-3l.09,0a19.11,19.11,0,0,0,7.93-3.51c1.89-1.45,3.6-3.17,3.73-4.7l-6.11-12.22S170.6,286.7,158.54,292.29Z" fill="#f9b499"/>
<path d="M309.55,316.32c-22,26.15-22.33,51.07-22.33,51.07L279.28,434s-21.81-22.25-85.5-49.08l-20.72,23.34s68.27,72.85,98.37,95.09c0,0,31,30.54,47.11,0,0,0,37.65-83.75,41.07-110.36l54.46,96.4s47.11,119.09,73.28,135.45l27.48-11.78L482,499a427.39,427.39,0,0,0-17.32-48.89c-14.43-34.05-42.06-99.05-55.64-127.52Z" fill="#2f2e41" data-secondary="true"/>
<path d="M391.06,125.18c.06-.87-1.05-1.57-1.9-2.16a30.21,30.21,0,0,1-7.8-7.74c-.42-.61-.77-1.14-1-1.49s-.46-.71-.71-1.05c-5.46-7.32-13.87-5.34-16.17-4.63-.33.1-.65.25-1,.38a7,7,0,0,1-1.2.39,8.89,8.89,0,0,1-5.27-.46c-7.94-3.26-16.42,2.22-16.42,2.22a11.74,11.74,0,0,1-7.12,1.45c-9.39-.32-14.36,4.68-16.25,7.19a12.82,12.82,0,0,0-1.13,1.93c-.89,1.79-3.49,3.85-4.75,4.78-.4.29-.81.55-1.22.81-7.95,5-5.3,15.83-5.3,15.83a19.55,19.55,0,0,1,.56,9.76,12,12,0,0,1-1.73,4c-4.17,6.44-1.26,13.27.13,15.82a13.15,13.15,0,0,1,1.61,5.14,12.33,12.33,0,0,1-1.12,6.28,16.21,16.21,0,0,0-1.55,5.13c-.8,7,3.45,10.24,3.45,10.24a31.22,31.22,0,0,1,14.43,2.51s10.47,6.1,14.39,0c0,0,5.67-10.47,12.87-12.22,0,0,10.69-3.49,6.11-17.88a14,14,0,0,1-.66-14s6.11-5.67-1.09-15.7c0,0-2.83-6.76,5.24-9.38,0,0,8.29-2.62,8.94-9.82,0,0,13.52,9.38,13.09,37.74,0,0,8.07,9.37-8.73,10.25,0,0-11.56-1.73-5.23,16.8l16.57-34S390.51,132.6,391.06,125.18Z" fill="#2f2e41" data-secondary="true"/>
<path d="M181.13,280l11.34,22.25s93.79-43.62,121.71-51L326.39,294,306.32,320.6s7.42-6.11,16.14-1.09c0,0,5.24,4.58,14.4,1.09,0,0,6.32-2.83,10.25,1.31,0,0,2.62,3.93,13.09,1.09a10.29,10.29,0,0,1,9.37,1s5.46,5.08,14.18.93a11.09,11.09,0,0,1,9.82.44s9.37,4.35,17,1.19l-12-31.07s4.32-6.65,8.92-14.87A54.7,54.7,0,0,0,404,222l17-58s6.54-26.61,5.23-35.33l3.05-67-24.21-2.4s-11.26,72.27-40.56,128l-47.21,9.28A59.28,59.28,0,0,0,295.11,206C270.51,222.89,207.52,265.8,181.13,280Z" fill="#0071f2" data-primary="true"/>
<path d="M510.6,199.26l-.21-.56a124.41,124.41,0,0,0-7.91-17.11c-18.79-34-27.72-111.12-27.72-111.12L450.55,72s-6.41,106.76,19.26,157.51c0,0-27.84,33,3,76.73l71.59,2.12S558,270.25,559.84,263L597,283.55l-17.83,48.33L600,344s25.38-34.44,35-59.52c0,0,9.67-14.2-3.32-26.28,0,0-36.25-36-65.25-46.22,0,0-14.71-3-22.31-2.12,0,0-12.13,1.82-14.85-8.45Z" fill="#0071f2" data-primary="true"/>
<path d="M731,414s8.68.67,7.23-4.24a5.06,5.06,0,0,0-2.87-3.15L690.22,387s-4-2.18-5.39,3.83l-2.11,11.59,18.44,7.84Z" fill="#0071f2" data-primary="true"/>
<path d="M581.46,333.21h0a11.86,11.86,0,0,1-5.54,1.73c-4.69.28-13.4,1.3-12.55,5.14,0,0,.88,2.91,5.53,1.45,0,0-9.92,3.76-15.6,17.44a2.27,2.27,0,0,0,2.66,3c1.54-.41,3.63-2,6.25-6.24,0,0-7,9.31-4.65,10.76,0,0,2.33,2.91,5.23-2.9,0,0-2.76,5.38,1.17,5.38,0,0,1.8.65,3.08-2.84,0,0,.62,7,7-.44a36.7,36.7,0,0,1,6-5.4,32.24,32.24,0,0,1,7.21-3.91c3.27-1.3,9.71-5.1,9-14.72Z" fill="#f9b499"/>
<path d="M382.13,26.33a1.6,1.6,0,0,1-.63-.14l-28-13a1.5,1.5,0,0,1,1.27-2.72l28,13a1.5,1.5,0,0,1-.64,2.86Z" fill="#d8d8d8"/>
<path d="M382.13,38.31H345.79a1.5,1.5,0,0,1,0-3h36.34a1.5,1.5,0,0,1,0,3Z" fill="#d8d8d8"/>
<path d="M354.12,60.61a1.49,1.49,0,0,1-1.44-1.08,1.52,1.52,0,0,1,1-1.86L382,49.58a1.5,1.5,0,1,1,.83,2.88l-28.25,8.1A1.51,1.51,0,0,1,354.12,60.61Z" fill="#d8d8d8"/>
<path d="M522.76,67a1.37,1.37,0,0,1-.49-.09L487.92,55.08a1.5,1.5,0,0,1,1-2.84L523.24,64a1.5,1.5,0,0,1,.94,1.9A1.52,1.52,0,0,1,522.76,67Z" fill="#d8d8d8"/>
<path d="M516.42,39.75h-28a1.5,1.5,0,0,1,0-3h28a1.5,1.5,0,0,1,0,3Z" fill="#d8d8d8"/>
<path d="M488.41,29.28a1.5,1.5,0,0,1-.69-2.83l31.12-16a1.49,1.49,0,0,1,2,.65,1.5,1.5,0,0,1-.64,2l-31.12,16A1.4,1.4,0,0,1,488.41,29.28Z" fill="#d8d8d8"/>
<path d="M338.27,174.29h24.3a0,0,0,0,1,0,0V195a12.15,12.15,0,0,1-12.15,12.15h0A12.15,12.15,0,0,1,338.27,195V174.29A0,0,0,0,1,338.27,174.29Z" transform="translate(17.95 -29.81) rotate(5)" fill="#f9b499"/>
<ellipse cx="359.52" cy="155.54" rx="34" ry="24.39" transform="translate(173.24 500.14) rotate(-85)" fill="#f9b499"/>
<path d="M338.82,183.93l.64-7.34s5.25,15.2,23.33,12.27C362.79,188.86,346.21,196.21,338.82,183.93Z" fill="#f7a48b"/>
<path d="M334.52,176.59s12,.3,11.27-10.63c0,0-4.87-15.84,3-17,0,0,9.64-4.58,7.65-16.61,0,0-.91-12.77,6-10.71,0,0,11.65,5.48,12.95,16.59,0,0,2.45,8,8.2,9.46l-.56-3.38-1.43-22.89-26.77-6.76s-27.14,1.88-28.65,3.77,0,44.86,0,46.37S334.52,176.59,334.52,176.59Z" fill="#2f2e41" data-secondary="true"/>
<path d="M504.29,180h20a0,0,0,0,1,0,0v22.65a7.86,7.86,0,0,1-7.86,7.86h-4.26a7.86,7.86,0,0,1-7.86-7.86V180a0,0,0,0,1,0,0Z" fill="#f9b499"/>
<path d="M504.29,191.43v-5.36A18.63,18.63,0,0,0,521,184.76S514.93,194,504.29,191.43Z" fill="#f7a48b"/>
<ellipse cx="515.18" cy="160.77" rx="27.6" ry="20.39" transform="translate(191.75 592.79) rotate(-70.51)" fill="#f9b499"/>
<path d="M525.84,161c2.95-4.69,5.24-2.94,5.24-2.94,5.34,2.29,1.53,6.76,1.53,6.76a22.39,22.39,0,0,1-3.06,4.58,2.63,2.63,0,0,1-4.25.22c-2.51,1.85,3.16,6.76,3.16,6.76a7.06,7.06,0,0,1,1.2,5.56c-5,8.07,1.09,11.63,1.09,11.63,1.46,1.67.58,3,.58,3-2.4,3-2.76,10.72-2.76,10.72,8.73,11.59,37.52,7.82,39,6.51s-.54-5.34-.54-5.34c-1.64-1.31-1.2-4.16-1.2-4.16,5.38-6.66,0-13,0-13-1.53-1.09-.88-3.28-.88-3.28,4.8-7.85-.65-16.13-.65-16.13,1.31-3.93.07-17,.07-17,7.56-1.81,10-6,10.62-9.79a11.32,11.32,0,0,0-6.41-11.86c-7.33-3.46-14.53,1.73-14.53,1.73-11.34-7.41-33.44-6.39-33.44-6.39-10-3.79-11,3.19-11,3.19-8.44,1.17-7.13,10-7.13,10a15.92,15.92,0,0,1,.61,6.84l6.13-10.34S511.94,151.58,525.84,161Z" fill="#2f2e41" data-secondary="true"/>
</svg>