<svg width="100" height="24" viewBox="0 0 100 24" fill="none" xmlns="http://www.w3.org/2000/svg">
<circle cx="12" cy="12" r="12" fill="#152766"/>
<circle cx="12" cy="12" r="7.76471" fill="white"/>
<circle cx="12" cy="12" r="7.05882" fill="#152766"/>
<circle cx="12" cy="12" r="4.94118" fill="#FFFBFB"/>
<path d="M28.84 17V8.36H34.42V9.716H30.286V11.846H33.7V13.202H30.286V15.644H34.42V17H28.84ZM37.6715 17.18C37.2035 17.18 36.8075 17.092 36.4835 16.916C36.1595 16.736 35.9135 16.498 35.7455 16.202C35.5815 15.906 35.4995 15.58 35.4995 15.224C35.4995 14.912 35.5515 14.632 35.6555 14.384C35.7595 14.132 35.9195 13.916 36.1355 13.736C36.3515 13.552 36.6315 13.402 36.9755 13.286C37.2355 13.202 37.5395 13.126 37.8875 13.058C38.2395 12.99 38.6195 12.928 39.0275 12.872C39.4395 12.812 39.8695 12.748 40.3175 12.68L39.8015 12.974C39.8055 12.526 39.7055 12.196 39.5015 11.984C39.2975 11.772 38.9535 11.666 38.4695 11.666C38.1775 11.666 37.8955 11.734 37.6235 11.87C37.3515 12.006 37.1615 12.24 37.0535 12.572L35.7335 12.158C35.8935 11.61 36.1975 11.17 36.6455 10.838C37.0975 10.506 37.7055 10.34 38.4695 10.34C39.0455 10.34 39.5515 10.434 39.9875 10.622C40.4275 10.81 40.7535 11.118 40.9655 11.546C41.0815 11.774 41.1515 12.008 41.1755 12.248C41.1995 12.484 41.2115 12.742 41.2115 13.022V17H39.9455V15.596L40.1555 15.824C39.8635 16.292 39.5215 16.636 39.1295 16.856C38.7415 17.072 38.2555 17.18 37.6715 17.18ZM37.9595 16.028C38.2875 16.028 38.5675 15.97 38.7995 15.854C39.0315 15.738 39.2155 15.596 39.3515 15.428C39.4915 15.26 39.5855 15.102 39.6335 14.954C39.7095 14.77 39.7515 14.56 39.7595 14.324C39.7715 14.084 39.7775 13.89 39.7775 13.742L40.2215 13.874C39.7855 13.942 39.4115 14.002 39.0995 14.054C38.7875 14.106 38.5195 14.156 38.2955 14.204C38.0715 14.248 37.8735 14.298 37.7015 14.354C37.5335 14.414 37.3915 14.484 37.2755 14.564C37.1595 14.644 37.0695 14.736 37.0055 14.84C36.9455 14.944 36.9155 15.066 36.9155 15.206C36.9155 15.366 36.9555 15.508 37.0355 15.632C37.1155 15.752 37.2315 15.848 37.3835 15.92C37.5395 15.992 37.7315 16.028 37.9595 16.028ZM45.2756 17.18C44.4756 17.18 43.8256 17 43.3256 16.64C42.8256 16.28 42.5216 15.774 42.4136 15.122L43.8896 14.894C43.9656 15.214 44.1336 15.466 44.3936 15.65C44.6536 15.834 44.9816 15.926 45.3776 15.926C45.7256 15.926 45.9936 15.858 46.1816 15.722C46.3736 15.582 46.4696 15.392 46.4696 15.152C46.4696 15.004 46.4336 14.886 46.3616 14.798C46.2936 14.706 46.1416 14.618 45.9056 14.534C45.6696 14.45 45.3076 14.344 44.8196 14.216C44.2756 14.072 43.8436 13.918 43.5236 13.754C43.2036 13.586 42.9736 13.388 42.8336 13.16C42.6936 12.932 42.6236 12.656 42.6236 12.332C42.6236 11.928 42.7296 11.576 42.9416 11.276C43.1536 10.976 43.4496 10.746 43.8296 10.586C44.2096 10.422 44.6576 10.34 45.1736 10.34C45.6776 10.34 46.1236 10.418 46.5116 10.574C46.9036 10.73 47.2196 10.952 47.4596 11.24C47.6996 11.528 47.8476 11.866 47.9036 12.254L46.4276 12.518C46.3916 12.242 46.2656 12.024 46.0496 11.864C45.8376 11.704 45.5536 11.614 45.1976 11.594C44.8576 11.574 44.5836 11.626 44.3756 11.75C44.1676 11.87 44.0636 12.04 44.0636 12.26C44.0636 12.384 44.1056 12.49 44.1896 12.578C44.2736 12.666 44.4416 12.754 44.6936 12.842C44.9496 12.93 45.3296 13.038 45.8336 13.166C46.3496 13.298 46.7616 13.45 47.0696 13.622C47.3816 13.79 47.6056 13.992 47.7416 14.228C47.8816 14.464 47.9516 14.75 47.9516 15.086C47.9516 15.738 47.7136 16.25 47.2376 16.622C46.7656 16.994 46.1116 17.18 45.2756 17.18ZM49.8834 19.88L51.1314 16.454L51.1554 17.462L48.3294 10.52H49.8354L51.8394 15.656H51.4554L53.4054 10.52H54.8514L51.2394 19.88H49.8834ZM58.9443 17.18C58.3123 17.18 57.7423 17.07 57.2343 16.85C56.7303 16.63 56.3143 16.316 55.9863 15.908C55.6623 15.496 55.4563 15.008 55.3683 14.444L56.8683 14.216C56.9963 14.728 57.2583 15.124 57.6543 15.404C58.0543 15.684 58.5143 15.824 59.0343 15.824C59.3423 15.824 59.6323 15.776 59.9043 15.68C60.1763 15.584 60.3963 15.444 60.5643 15.26C60.7363 15.076 60.8223 14.85 60.8223 14.582C60.8223 14.462 60.8023 14.352 60.7623 14.252C60.7223 14.148 60.6623 14.056 60.5823 13.976C60.5063 13.896 60.4063 13.824 60.2823 13.76C60.1623 13.692 60.0223 13.634 59.8623 13.586L57.6303 12.926C57.4383 12.87 57.2303 12.796 57.0063 12.704C56.7863 12.608 56.5763 12.478 56.3763 12.314C56.1803 12.146 56.0183 11.934 55.8903 11.678C55.7663 11.418 55.7043 11.098 55.7043 10.718C55.7043 10.162 55.8443 9.696 56.1243 9.32C56.4083 8.94 56.7883 8.656 57.2643 8.468C57.7443 8.28 58.2763 8.188 58.8603 8.192C59.4523 8.196 59.9803 8.298 60.4443 8.498C60.9083 8.694 61.2963 8.98 61.6083 9.356C61.9203 9.732 62.1403 10.186 62.2683 10.718L60.7143 10.988C60.6503 10.684 60.5263 10.426 60.3423 10.214C60.1623 9.998 59.9403 9.834 59.6763 9.722C59.4163 9.61 59.1383 9.55 58.8423 9.542C58.5543 9.538 58.2863 9.582 58.0383 9.674C57.7943 9.762 57.5963 9.89 57.4443 10.058C57.2963 10.226 57.2223 10.422 57.2223 10.646C57.2223 10.858 57.2863 11.032 57.4143 11.168C57.5423 11.3 57.7003 11.406 57.8883 11.486C58.0803 11.562 58.2743 11.626 58.4703 11.678L60.0183 12.11C60.2303 12.166 60.4683 12.242 60.7323 12.338C60.9963 12.434 61.2503 12.568 61.4943 12.74C61.7383 12.912 61.9383 13.138 62.0943 13.418C62.2543 13.698 62.3343 14.054 62.3343 14.486C62.3343 14.934 62.2403 15.328 62.0523 15.668C61.8683 16.004 61.6183 16.284 61.3023 16.508C60.9863 16.732 60.6243 16.9 60.2163 17.012C59.8123 17.124 59.3883 17.18 58.9443 17.18ZM63.753 17V8.36H65.199V17H63.753ZM70.5603 17.18C70.0003 17.18 69.4743 17.082 68.9823 16.886C68.4943 16.686 68.0643 16.394 67.6923 16.01C67.3243 15.626 67.0363 15.156 66.8283 14.6C66.6203 14.04 66.5163 13.4 66.5163 12.68C66.5163 11.736 66.6923 10.93 67.0443 10.262C67.3963 9.59 67.8783 9.076 68.4903 8.72C69.1023 8.36 69.7923 8.18 70.5603 8.18C71.6243 8.18 72.4663 8.428 73.0863 8.924C73.7103 9.416 74.1323 10.108 74.3523 11L72.8763 11.234C72.7122 10.722 72.4443 10.314 72.0723 10.01C71.7003 9.702 71.2263 9.548 70.6503 9.548C70.0703 9.54 69.5883 9.666 69.2043 9.926C68.8203 10.186 68.5303 10.552 68.3343 11.024C68.1423 11.496 68.0463 12.048 68.0463 12.68C68.0463 13.312 68.1423 13.862 68.3343 14.33C68.5263 14.794 68.8143 15.156 69.1983 15.416C69.5863 15.676 70.0703 15.81 70.6503 15.818C71.0863 15.822 71.4683 15.744 71.7963 15.584C72.1243 15.42 72.3923 15.174 72.6003 14.846C72.8083 14.514 72.9483 14.1 73.0203 13.604H71.4963V12.47H74.5563C74.5643 12.534 74.5703 12.628 74.5743 12.752C74.5783 12.876 74.5803 12.95 74.5803 12.974C74.5803 13.79 74.4183 14.516 74.0943 15.152C73.7743 15.784 73.3143 16.28 72.7143 16.64C72.1143 17 71.3963 17.18 70.5603 17.18ZM74.9509 17L77.6749 8.36H79.7929L82.5169 17H81.0289L78.5569 9.248H78.8809L76.4389 17H74.9509ZM76.4689 15.128V13.778H81.0049V15.128H76.4689ZM83.3767 17L86.1007 8.36H88.2187L90.9427 17H89.4547L86.9827 9.248H87.3067L84.8647 17H83.3767ZM84.8947 15.128V13.778H89.4307V15.128H84.8947Z" fill="#FEFEFF"/>
<rect x="9" y="9" width="2" height="6" fill="#F14242"/>
<rect x="12" y="10" width="1" height="4" fill="#F14242"/>
<rect x="14" y="11" width="1" height="2" fill="#F14242"/>
</svg>
