<svg width="100" height="24" viewBox="0 0 100 24" fill="none" xmlns="http://www.w3.org/2000/svg">
<circle cx="12" cy="12" r="12" fill="#152766"/>
<circle cx="12" cy="12" r="7.76471" fill="white"/>
<circle cx="12" cy="12" r="7.05882" fill="#152766"/>
<circle cx="12" cy="12" r="4.94118" fill="#FFFBFB"/>
<rect x="8.47058" y="9.17645" width="7.05882" height="1.41176" fill="#F14242"/>
<rect x="8.47058" y="11.2941" width="7.05882" height="1.41176" fill="#F14242"/>
<rect x="8.47058" y="13.4117" width="7.05882" height="1.41176" fill="#F14242"/>
<path d="M28.84 17V8.36H34.36V9.542H30.094V11.966H33.64V13.148H30.094V15.818H34.36V17H28.84ZM37.6309 17.18C37.1509 17.18 36.7489 17.092 36.4249 16.916C36.1009 16.736 35.8549 16.5 35.6869 16.208C35.5229 15.912 35.4409 15.588 35.4409 15.236C35.4409 14.908 35.4989 14.62 35.6149 14.372C35.7309 14.124 35.9029 13.914 36.1309 13.742C36.3589 13.566 36.6389 13.424 36.9709 13.316C37.2589 13.232 37.5849 13.158 37.9489 13.094C38.3129 13.03 38.6949 12.97 39.0949 12.914C39.4989 12.858 39.8989 12.802 40.2949 12.746L39.8389 12.998C39.8469 12.49 39.7389 12.114 39.5149 11.87C39.2949 11.622 38.9149 11.498 38.3749 11.498C38.0349 11.498 37.7229 11.578 37.4389 11.738C37.1549 11.894 36.9569 12.154 36.8449 12.518L35.6749 12.158C35.8349 11.602 36.1389 11.16 36.5869 10.832C37.0389 10.504 37.6389 10.34 38.3869 10.34C38.9669 10.34 39.4709 10.44 39.8989 10.64C40.3309 10.836 40.6469 11.148 40.8469 11.576C40.9509 11.788 41.0149 12.012 41.0389 12.248C41.0629 12.484 41.0749 12.738 41.0749 13.01V17H39.9649V15.518L40.1809 15.71C39.9129 16.206 39.5709 16.576 39.1549 16.82C38.7429 17.06 38.2349 17.18 37.6309 17.18ZM37.8529 16.154C38.2089 16.154 38.5149 16.092 38.7709 15.968C39.0269 15.84 39.2329 15.678 39.3889 15.482C39.5449 15.286 39.6469 15.082 39.6949 14.87C39.7629 14.678 39.8009 14.462 39.8089 14.222C39.8209 13.982 39.8269 13.79 39.8269 13.646L40.2349 13.796C39.8389 13.856 39.4789 13.91 39.1549 13.958C38.8309 14.006 38.5369 14.054 38.2729 14.102C38.0129 14.146 37.7809 14.2 37.5769 14.264C37.4049 14.324 37.2509 14.396 37.1149 14.48C36.9829 14.564 36.8769 14.666 36.7969 14.786C36.7209 14.906 36.6829 15.052 36.6829 15.224C36.6829 15.392 36.7249 15.548 36.8089 15.692C36.8929 15.832 37.0209 15.944 37.1929 16.028C37.3649 16.112 37.5849 16.154 37.8529 16.154ZM45.111 17.174C44.323 17.174 43.681 17 43.185 16.652C42.689 16.304 42.385 15.814 42.273 15.182L43.557 14.984C43.637 15.32 43.821 15.586 44.109 15.782C44.401 15.974 44.763 16.07 45.195 16.07C45.587 16.07 45.893 15.99 46.113 15.83C46.337 15.67 46.449 15.45 46.449 15.17C46.449 15.006 46.409 14.874 46.329 14.774C46.253 14.67 46.091 14.572 45.843 14.48C45.595 14.388 45.217 14.274 44.709 14.138C44.153 13.994 43.711 13.84 43.383 13.676C43.059 13.508 42.827 13.314 42.687 13.094C42.551 12.87 42.483 12.6 42.483 12.284C42.483 11.892 42.587 11.55 42.795 11.258C43.003 10.966 43.295 10.74 43.671 10.58C44.051 10.42 44.495 10.34 45.003 10.34C45.499 10.34 45.941 10.418 46.329 10.574C46.717 10.73 47.031 10.952 47.271 11.24C47.511 11.524 47.655 11.858 47.703 12.242L46.419 12.476C46.375 12.164 46.229 11.918 45.981 11.738C45.733 11.558 45.411 11.46 45.015 11.444C44.635 11.428 44.327 11.492 44.091 11.636C43.855 11.776 43.737 11.97 43.737 12.218C43.737 12.362 43.781 12.484 43.869 12.584C43.961 12.684 44.137 12.78 44.397 12.872C44.657 12.964 45.041 13.074 45.549 13.202C46.093 13.342 46.525 13.498 46.845 13.67C47.165 13.838 47.393 14.04 47.529 14.276C47.669 14.508 47.739 14.79 47.739 15.122C47.739 15.762 47.505 16.264 47.037 16.628C46.573 16.992 45.931 17.174 45.111 17.174ZM49.7082 19.88L50.9622 16.466L50.9802 17.474L48.1542 10.52H49.4622L51.5742 15.89H51.1902L53.2062 10.52H54.4782L50.9022 19.88H49.7082ZM58.5501 17.18C57.9301 17.18 57.3701 17.074 56.8701 16.862C56.3741 16.646 55.9641 16.34 55.6401 15.944C55.3201 15.544 55.1121 15.07 55.0161 14.522L56.3241 14.324C56.4561 14.852 56.7321 15.264 57.1521 15.56C57.5721 15.852 58.0621 15.998 58.6221 15.998C58.9701 15.998 59.2901 15.944 59.5821 15.836C59.8741 15.724 60.1081 15.566 60.2841 15.362C60.4641 15.154 60.5541 14.906 60.5541 14.618C60.5541 14.462 60.5261 14.324 60.4701 14.204C60.4181 14.084 60.3441 13.98 60.2481 13.892C60.1561 13.8 60.0421 13.722 59.9061 13.658C59.7741 13.59 59.6281 13.532 59.4681 13.484L57.2541 12.83C57.0381 12.766 56.8181 12.684 56.5941 12.584C56.3701 12.48 56.1641 12.346 55.9761 12.182C55.7921 12.014 55.6421 11.808 55.5261 11.564C55.4101 11.316 55.3521 11.016 55.3521 10.664C55.3521 10.132 55.4881 9.682 55.7601 9.314C56.0361 8.942 56.4081 8.662 56.8761 8.474C57.3441 8.282 57.8681 8.186 58.4481 8.186C59.0321 8.194 59.5541 8.298 60.0141 8.498C60.4781 8.698 60.8621 8.986 61.1661 9.362C61.4741 9.734 61.6861 10.186 61.8021 10.718L60.4581 10.946C60.3981 10.622 60.2701 10.344 60.0741 10.112C59.8781 9.876 59.6381 9.696 59.3541 9.572C59.0701 9.444 58.7621 9.378 58.4301 9.374C58.1101 9.366 57.8161 9.414 57.5481 9.518C57.2841 9.622 57.0721 9.768 56.9121 9.956C56.7561 10.144 56.6781 10.36 56.6781 10.604C56.6781 10.844 56.7481 11.038 56.8881 11.186C57.0281 11.334 57.2001 11.452 57.4041 11.54C57.6121 11.624 57.8181 11.694 58.0221 11.75L59.6181 12.2C59.8181 12.256 60.0441 12.332 60.2961 12.428C60.5521 12.52 60.7981 12.65 61.0341 12.818C61.2741 12.986 61.4721 13.21 61.6281 13.49C61.7841 13.766 61.8621 14.114 61.8621 14.534C61.8621 14.97 61.7741 15.354 61.5981 15.686C61.4221 16.014 61.1801 16.29 60.8721 16.514C60.5681 16.734 60.2161 16.9 59.8161 17.012C59.4161 17.124 58.9941 17.18 58.5501 17.18ZM63.2608 17V8.36H64.5148V17H63.2608ZM69.8506 17.18C69.2706 17.18 68.7366 17.08 68.2486 16.88C67.7606 16.676 67.3366 16.38 66.9766 15.992C66.6166 15.604 66.3366 15.132 66.1366 14.576C65.9366 14.02 65.8366 13.388 65.8366 12.68C65.8366 11.748 66.0066 10.948 66.3466 10.28C66.6866 9.608 67.1586 9.092 67.7626 8.732C68.3666 8.368 69.0626 8.186 69.8506 8.186C70.8666 8.186 71.6766 8.422 72.2806 8.894C72.8886 9.366 73.3026 10.018 73.5226 10.85L72.2506 11.078C72.0746 10.562 71.7906 10.15 71.3986 9.842C71.0066 9.534 70.5146 9.378 69.9226 9.374C69.3106 9.37 68.8006 9.506 68.3926 9.782C67.9886 10.058 67.6846 10.446 67.4806 10.946C67.2766 11.442 67.1726 12.02 67.1686 12.68C67.1646 13.34 67.2646 13.918 67.4686 14.414C67.6726 14.906 67.9786 15.29 68.3866 15.566C68.7986 15.842 69.3106 15.982 69.9226 15.986C70.4146 15.994 70.8366 15.904 71.1886 15.716C71.5446 15.524 71.8266 15.244 72.0346 14.876C72.2426 14.508 72.3766 14.056 72.4366 13.52H70.7566V12.512H73.7686C73.7766 12.584 73.7826 12.68 73.7866 12.8C73.7906 12.916 73.7926 12.99 73.7926 13.022C73.7926 13.822 73.6386 14.536 73.3306 15.164C73.0226 15.792 72.5746 16.286 71.9866 16.646C71.3986 17.002 70.6866 17.18 69.8506 17.18ZM74.1541 17L76.9621 8.36H78.7681L81.5761 17H80.2741L77.6881 9.116H78.0121L75.4561 17H74.1541ZM75.6121 15.05V13.874H80.1241V15.05H75.6121ZM82.4509 17L85.2589 8.36H87.0649L89.8729 17H88.5709L85.9849 9.116H86.3089L83.7529 17H82.4509ZM83.9089 15.05V13.874H88.4209V15.05H83.9089Z" fill="#152766"/>
</svg>
