 <!DOCTYPE svg PUBLIC "-//W3C//DTD SVG 1.1//EN" "http://www.w3.org/Graphics/SVG/1.1/DTD/svg11.dtd">
<svg id="bae388cf-cd83-4db9-984b-6ee0f65cfd8b" data-name="Layer 1" xmlns="http://www.w3.org/2000/svg" width="865.76" height="682.89" viewBox="0 0 865.76 682.89">
<defs>
<style xmlns="http://www.w3.org/1999/xhtml">*, ::after, ::before { box-sizing: border-box; }
img, svg { vertical-align: middle; }
</style>
<style xmlns="http://www.w3.org/1999/xhtml">*, body, html { -webkit-font-smoothing: antialiased; }
img, svg { max-width: 100%; }
</style>
</defs>
<path d="M417.31,353.34s8.65,23.93,25.95,35.47H419Z" fill="#0071f2" data-primary="true"/>
<path d="M417.31,353.34s8.65,23.93,25.95,35.47H419Z" fill="#231f20" opacity="0.2"/>
<path d="M456.21,585.89v8c0,2.35,2.56,4.25,5.72,4.25h0c3.16,0,5.72-1.9,5.72-4.25v-8Z" fill="#f9b499"/>
<path d="M496.25,586.79l1.27,7.9c.37,2.32,3.24,3.79,6.4,3.28h0c3.16-.51,5.42-2.8,5.05-5.12L507.7,585Z" fill="#f9b499"/>
<rect x="235.42" y="408.7" width="14.99" height="194.92" fill="#dedede"/>
<rect x="303.71" y="408.7" width="14.99" height="194.92" fill="#dedede"/>
<rect x="552.83" y="408.7" width="14.99" height="194.92" fill="#dedede"/>
<rect x="621.12" y="408.7" width="14.99" height="194.92" fill="#dedede"/>
<rect x="363.39" y="478.34" width="12.54" height="119.81" fill="#dedede"/>
<path d="M457.68,478.34s-72.53,4.75-118.51,0l4.88-19.9H457.68Z" fill="#d1d3d4"/>
<rect x="202.79" y="62.69" width="133.21" height="107.26" rx="19.31" fill="#dedede"/>
<rect x="210.84" y="69.61" width="118.6" height="92.27" rx="13.78" fill="#fff"/>
<rect x="226.54" y="85.76" width="89.28" height="62.28" rx="13.78" fill="#dedede"/>
<rect x="33.82" y="133.63" width="132.64" height="174.68" rx="22.11" fill="#dedede"/>
<rect x="40.74" y="139.97" width="118.22" height="160.89" rx="17.14" fill="#fff"/>
<path d="M421.12,373c-6.37-69.45-13.66-78.11-15.09-79.16-.24-.17-.48-.35-.7-.54-15.83-14-41.94,15.11-41.94,15.11S336.81,369.2,346,405.68a17.77,17.77,0,0,0,10.93,12.38l.17.07a3.19,3.19,0,0,1,.54.24,59.49,59.49,0,0,1,17.59,16s34-7.49,46.43-21.33V384.2Q421.64,378.56,421.12,373Z" fill="#0071f2" data-primary="true"/>
<path d="M364.74,365.44l13.67-25.89A22.94,22.94,0,0,0,381,326.6a22,22,0,0,0-10.42-16.51c-6.63-4.61-10.67,1.15-10.67,1.15s-40.37,58.82-30,73.24c0,0,4,14.06,57.24,8.65l21.41-3.46s-3-9.08-1.51-12.76c0,0-28.39-2.14-41.64-9.18A1.69,1.69,0,0,1,364.74,365.44Z" fill="#0071f2" data-primary="true"/>
<path d="M364.74,365.44l13.67-25.89A22.94,22.94,0,0,0,381,326.6a22,22,0,0,0-10.42-16.51c-6.63-4.61-10.67,1.15-10.67,1.15s-40.37,58.82-30,73.24c0,0,4,14.06,57.24,8.65l21.41-3.46s-3-9.08-1.51-12.76c0,0-28.39-2.14-41.64-9.18A1.69,1.69,0,0,1,364.74,365.44Z" fill="#0071f2" data-primary="true"/>
<path d="M364.74,365.44l13.67-25.89A22.94,22.94,0,0,0,381,326.6a22,22,0,0,0-10.42-16.51c-6.63-4.61-10.67,1.15-10.67,1.15s-40.37,58.82-30,73.24c0,0,4,14.06,57.24,8.65l21.41-3.46s-3-9.08-1.51-12.76c0,0-28.39-2.14-41.64-9.18A1.69,1.69,0,0,1,364.74,365.44Z" fill="#231f20" opacity="0.2"/>
<path d="M400.59,305.65s11,70.18,5.76,117.18" fill="none" stroke="#231f20" stroke-miterlimit="10" opacity="0.2"/>
<path d="M450.87,414.3s34.15.61,48,7.73a10.78,10.78,0,0,1,5.78,8.75c1.25,15.9,6.17,83.62,4.91,147.47l-16.87,3-14.27-65.52Z" fill="#2f2e41" data-secondary="true"/>
<path d="M450.87,414.3s34.15.61,48,7.73a10.78,10.78,0,0,1,5.78,8.75c1.25,15.9,6.17,83.62,4.91,147.47l-16.87,3-14.27-65.52Z" fill="#231f20" opacity="0.2"/>
<path d="M471.56,587.47h-20a1.47,1.47,0,0,1-1.52-1.4v-6.42a1.46,1.46,0,0,1,1.52-1.4H473.6a1.36,1.36,0,0,1,1.41,1.52l-1,5.76A2.45,2.45,0,0,1,471.56,587.47Z" fill="#2f2e41" data-secondary="true"/>
<path d="M512.56,586.81l-19.85,2.65a1.46,1.46,0,0,1-1.69-1.19l-.85-6.36a1.46,1.46,0,0,1,1.31-1.59l21.89-2.93a1.35,1.35,0,0,1,1.59,1.33l-.22,5.84A2.45,2.45,0,0,1,512.56,586.81Z" fill="#2f2e41" data-secondary="true"/>
<path d="M322.3,603.62h97.32S375.93,579.25,322.3,603.62Z" fill="#dedede"/>
<rect x="25.17" y="603.62" width="815.43" height="16.58" rx="8.29" fill="#dedede"/>
<rect x="55.44" y="154.71" width="89.96" height="132.58" rx="5.14" fill="#dedede"/>
<circle cx="739.55" cy="210.63" r="61.46" fill="#dedede"/>
<circle cx="739.55" cy="210.63" r="50.62" fill="#fafafa"/>
<circle cx="740.3" cy="211" r="2.94" fill="#bcbec0"/>
<path d="M739.59,179.9h0a1,1,0,0,1,1,1v30a0,0,0,0,1,0,0h-2.1a0,0,0,0,1,0,0V181a1,1,0,0,1,1-1Z" fill="#bcbec0"/>
<path d="M756.92,172h0a1.38,1.38,0,0,1,1.38,1.38V218.3a0,0,0,0,1,0,0h-2.75a0,0,0,0,1,0,0V173.38a1.38,1.38,0,0,1,1.38-1.38Z" transform="translate(381.22 -490.31) rotate(46.82)" fill="#bcbec0"/>
<line x1="692.96" y1="211" x2="703.06" y2="211" fill="none" stroke="#bcbec0" stroke-miterlimit="10"/>
<line x1="776.44" y1="211" x2="786.53" y2="211" fill="none" stroke="#bcbec0" stroke-miterlimit="10"/>
<line x1="739.71" y1="247.04" x2="739.71" y2="257.13" fill="none" stroke="#bcbec0" stroke-miterlimit="10"/>
<line x1="739.88" y1="163.78" x2="739.88" y2="173.87" fill="none" stroke="#bcbec0" stroke-miterlimit="10"/>
<circle cx="778.64" cy="188.54" r="1.53" fill="#bcbec0"/>
<circle cx="763.93" cy="172.51" r="1.53" fill="#bcbec0"/>
<circle cx="718.01" cy="171.67" r="1.53" fill="#bcbec0"/>
<circle cx="701.87" cy="186.68" r="1.53" fill="#bcbec0"/>
<circle cx="715.82" cy="248.56" r="1.53" fill="#bcbec0"/>
<circle cx="700.68" cy="232.37" r="1.53" fill="#bcbec0"/>
<circle cx="761.9" cy="249.75" r="1.53" fill="#bcbec0"/>
<circle cx="777.62" cy="234.75" r="1.53" fill="#bcbec0"/>
<path d="M404.91,388.81h18.86a2.72,2.72,0,0,0,2.71-2.86c-.24-4.44-3.16-12.11-21.57-8.21Z" fill="#f9b499"/>
<path d="M550.24,326.52l-36.33,69.21-109.74-1.36.74-7,38.35,1.45,32.58-62.29s2.6-8.36,11.54-6.63l61.41,1.16S553.84,319.66,550.24,326.52Z" fill="#2f2e41" data-secondary="true"/>
<circle cx="501.31" cy="357.12" r="5.78" fill="#231f20" opacity="0.3"/>
<rect x="561.84" y="340.71" width="79.96" height="17.66" rx="4.06" fill="#2f2e41" data-secondary="true"/>
<circle cx="572.55" cy="349.87" r="4.15" fill="#fff"/>
<rect x="624.26" y="342.53" width="17.54" height="13.67" fill="#fff"/>
<rect x="575.18" y="358.7" width="79.96" height="17.66" rx="4.06" fill="#bcbec0"/>
<circle cx="585.88" cy="367.86" r="4.15" fill="#d1d3d4"/>
<rect x="637.59" y="360.52" width="17.54" height="13.67" fill="#d1d3d4"/>
<rect x="561.84" y="376.69" width="79.96" height="17.66" rx="4.06" fill="#2f2e41" data-secondary="true"/>
<circle cx="572.55" cy="385.85" r="4.15" fill="#fff"/>
<rect x="624.26" y="378.52" width="17.54" height="13.67" fill="#fff"/>
<path d="M388.05,278.73,383.4,296a1.87,1.87,0,0,0,0,.91V297a11,11,0,0,0,9.54,8.53l1.4.11a6.92,6.92,0,0,0,6.89-4.88l3.69-11.87Z" fill="#f9b499"/>
<path d="M380.69,458s-12.3-6.85-5.48-23.65c0,0-9.61-12.64-17.59-16,0,0-13.57-4-13.57-25.95,0,0-21.33-2.5-12.83-23.17,0,0,4.71-21.6,29.43-56.28A116.67,116.67,0,0,1,382,293.42c-5.68-10-12.16-13.9-13.4-14.58l-.58-.32c-26.41-15.15-44.31,16.35-44.44,16.29s-60.84,108.12-51.32,154.26c0,0,10.67,45.56,86.5,28C358.78,477,375.82,472.64,380.69,458Z" fill="#bcbec0"/>
<rect x="209.88" y="394.37" width="448.32" height="17.98" rx="8.99" fill="#dedede"/>
<path d="M453.73,608.61l8.35.37,1-5.29,2.56,5.29h14.88a3.34,3.34,0,0,0,1.9-6.09l-12.95-8.06v-5.35l-14.17.22Z" fill="#0071f2" data-primary="true"/>
<path d="M494.38,610.14l8.35.37,1-5.3,2.57,5.3h14.87a3.34,3.34,0,0,0,1.9-6.1l-13-8V591l-14.16.23Z" fill="#0071f2" data-primary="true"/>
<path d="M387.26,459.74h66.67l-1.44,118.51H472.1s.57-8.65,1.44-13.56c0,0,22.49-105.82,21.62-125.42,0,0,5-13-15.4-19.88a49.23,49.23,0,0,0-7.47-1.89c-9.56-1.66-44.91-7.41-57.57-4.18l-34.2,16.53a13.33,13.33,0,0,0-7.26,14.68l.92,4.54A13.36,13.36,0,0,0,387.26,459.74Z" fill="#2f2e41" data-secondary="true"/>
<ellipse cx="380.25" cy="447.05" rx="11.84" ry="14.19" fill="#bcbec0"/>
<path d="M388.05,278.73l-1.87,6.95s7.93,8.62,18.73,3.22Z" fill="#f4a48e"/>
<path d="M434.51,237.14s-.82,41.89-22.24,53.05c-18.72,9.76-33.64-24.38-33.64-24.38l-5-5.8-3-12.2,13.12-17Z" fill="#f9b499"/>
<path d="M376.8,206.29s5.62-6.49,19.9,3c0,0,7.35,6.49,16,3.46,0,0,23.79-7.35,32,5.63,0,0,8.33,11-.29,18.36a14.27,14.27,0,0,1-5.66,2.9c-6,1.53-23.49,4.67-44.65-3.82a5,5,0,0,0-5.41,0,5.85,5.85,0,0,0-1.2,1c-1.25,1.37-5,5.82-6.08,11,0,0-4.26-5.45-7.31.72a11.83,11.83,0,0,0-1.15,4.21c-.29,3.33-.13,9.69,5.58,7.75,0,0,.86,10.67-1.59,6.64,0,0-6.48-8.51-8.21-35.47C368.73,231.66,368.15,212.63,376.8,206.29Z" fill="#2f2e41" data-secondary="true"/>
</svg>